<svg width="425" height="418" viewBox="0 0 425 418" fill="none" xmlns="http://www.w3.org/2000/svg">
<path d="M248.061 144.083L248.207 144.666L248.754 144.416L380.961 83.9203L293.095 200.543L292.738 201.016L293.266 201.288L422.573 267.889L277.441 271.274L276.844 271.288L276.963 271.873L305.985 415.411L212.885 303.023L212.5 302.558L212.115 303.023L119.015 415.411L148.037 271.873L148.156 271.288L147.559 271.274L2.42679 267.889L131.734 201.288L132.262 201.016L131.905 200.543L44.0393 83.9203L176.246 144.416L176.793 144.666L176.939 144.083L212.5 2.05857L248.061 144.083Z" fill="#1380CD" stroke="black"/>
</svg>
